<?xml version="1.0" encoding="UTF-8"?>
<svg id="_レイヤー_5" data-name="レイヤー 5" xmlns="http://www.w3.org/2000/svg" viewBox="0 0 198.43 99.21">
  <defs>
    <style>
      .cls-1 {
        opacity: .98;
      }

      .cls-2 {
        fill: #002ba5;
      }
    </style>
  </defs>
  <g class="cls-1">
    <g>
      <path class="cls-2" d="M63.01,23.88c0,.32-.11.59-.32.87-2.22,2.38-8.06,11.95-13.03,20.82,1.14,1.19,1.48,3.41,1.25,3.96-.26.6-1.09,1.2-2.77,1.42-.59.08.16.03-1.46.03-3.41,6.33-5.14,10.33-5.14,11.57,0,.7.16,1.03.16,1.3,0,.22-.22.27-.38.27-1.62,0-3.95-3.24-3.95-4.71,0-1.12,1.27-4.54,2.92-8.62.04-.09-.03-.18-.12-.19l-10.88-.13c-4.27,8.49-6.89,16.08-7.21,16.51-.27.32-.54.49-.81.49-1.41,0-2.76-2.27-2.76-4.22,0-1.66,1.97-6.81,4.47-12.68.06-.14,0-.3-.15-.35-1.41-.45-8.64-.43-9.18-.49-2.06-.87-7.01-3.71-7.01-3.6,0-1.24,11.06-1.54,19.12-1.92,5.3-11.52,10.6-21.36,12.01-21.36,1.51,0,4.43,2.97,4.43,4.92,0,.49-4.92,8.11-9.19,16.17,1.84-.05,3.68-.05,5.41-.05s3.41,0,4.87.05c5.79-12.82,12.65-25.47,14.17-25.47,1.62,0,4.92,2.81,5.46,4.7.05.22.11.49.11.7Z"/>
      <path class="cls-2" d="M21.66,64.87c-.43,1.02-1.12,1.02-1.57,0-.2-.47-.35-1.02-.35-1.58,0-.61.42-3.01,4.28-12.06l.22-.52c.23-.54-.15-1.16-.74-1.19l-.57-.03c-1.02-.05-9.26.24-9.26.25.05.13-5.34-1.23-7.05-3.52-.02-.02.11,0,.14-.01,1.41-.16,14.52-.51,17.18-.63l2.09-.1c.32-.01.6-.21.74-.5l.1-.22c4.96-10.77,8.87-17.84,10.59-20.05.29-.36.81-.43,1.18-.15.83.61,1.85,1.76,2.18,2.68.08.22.05.46-.06.67-.37.68-1.13,1.95-1.91,3.27-1.79,3.01-4.5,7.57-6.96,12.21l-.32.6c-.31.58.12,1.27.78,1.25l.68-.02c1.82-.05,3.63-.05,5.37-.05s3.38,0,4.82.05h.27c.35.02.67-.18.81-.49l.11-.24c5.68-12.57,10.87-21.3,12.86-23.77.25-.31.65-.53,1-.33,1.23.67,3.08,1.97,3.43,3.14.06.26.07.37.07.38,0,0,0,.02-.03.06-2.43,2.65-8.52,12.73-13.17,21.02l-.14.25c-.18.33-.13.73.13,1.01l.2.21c.53.56,1.07,1.43,1.45,2.17.29.56-.11,1.23-.74,1.24,0,0-.01,0-.02,0-.2,0-.39-.01-.62-.03-.46-.03-1.08-.08-2.14-.08h-.24c-.31,0-.6.17-.75.45l-.11.21c-2.51,4.66-4.14,8.08-4.86,10.22-.23.68-1.14.79-1.52.19-.34-.54-.58-1.06-.58-1.39,0-.47.35-2.14,2.72-8.02l.22-.54c.23-.56-.19-1.17-.79-1.17h-11.64c-.32,0-.62.18-.76.47l-.11.22c-2.96,5.87-5.17,11.11-6.36,13.93-.08.19-.16.37-.23.55ZM38.12,24.05"/>
    </g>
    <g>
      <path class="cls-2" d="M52.26,63.45c-.18,0-.37,0-.62-.05-.81-.16-1.29-1-1.29-2.24,0-.53.1-1.15.27-1.7,1.59-5.32,4.07-10.93,5.69-13.89.43-.76,1.12-1.17,1.95-1.17,1.12,0,2.37.92,2.37,2.25,0,.36-.1.76-.29,1.14-1.42,2.55-4.1,9.2-5.01,12.13l-.04.11c-.58,1.84-1.09,3.43-3.02,3.43ZM61.04,42.57c-1.25,0-2.12-.91-2.12-2.21,0-.26,0-.56.1-.9.28-1.21,1.68-2.92,3.56-2.92,1.25,0,2.12.89,2.12,2.16,0,.27-.07.55-.15.86l-.03.12c-.3.99-1.35,1.97-1.73,2.27-.56.41-1.18.63-1.75.63Z"/>
      <path class="cls-2" d="M50.77,61.16c0-.46.08-1.04.25-1.58,1.58-5.28,4.04-10.86,5.66-13.81.37-.67.96-.96,1.58-.96.96,0,1.96.79,1.96,1.83,0,.29-.08.62-.25.96-1.46,2.62-4.16,9.36-5.03,12.19-.58,1.83-1,3.24-2.66,3.24-.17,0-.33,0-.54-.04-.62-.12-.96-.83-.96-1.83ZM61.04,42.15c-.92,0-1.71-.62-1.71-1.79,0-.25,0-.5.08-.79.25-1.08,1.5-2.62,3.16-2.62,1,0,1.71.67,1.71,1.75,0,.25-.08.54-.17.87-.25.83-1.21,1.75-1.58,2.04-.46.33-1,.54-1.5.54Z"/>
      <path class="cls-2" d="M52.26,63.45c-.18,0-.37,0-.62-.05-.81-.16-1.29-1-1.29-2.24,0-.53.1-1.15.27-1.7,1.59-5.32,4.07-10.93,5.69-13.89.43-.76,1.12-1.17,1.95-1.17,1.12,0,2.37.92,2.37,2.25,0,.36-.1.76-.29,1.14-1.42,2.55-4.1,9.2-5.01,12.13l-.04.11c-.58,1.84-1.09,3.43-3.02,3.43ZM61.04,42.57c-1.25,0-2.12-.91-2.12-2.21,0-.26,0-.56.1-.9.28-1.21,1.68-2.92,3.56-2.92,1.25,0,2.12.89,2.12,2.16,0,.27-.07.55-.15.86l-.03.12c-.3.99-1.35,1.97-1.73,2.27-.56.41-1.18.63-1.75.63Z"/>
      <path class="cls-2" d="M50.77,61.16c0-.46.08-1.04.25-1.58,1.62-5.41,4.12-11.02,5.66-13.81.37-.67.96-.96,1.58-.96.96,0,1.96.79,1.96,1.83,0,.29-.08.62-.25.96-1.46,2.62-4.16,9.36-5.03,12.19-.58,1.83-1,3.24-2.66,3.24-.17,0-.33,0-.54-.04-.62-.12-.96-.83-.96-1.83ZM61.04,42.15c-.92,0-1.71-.62-1.71-1.79,0-.25,0-.5.08-.79.25-1.08,1.5-2.62,3.16-2.62,1,0,1.71.67,1.71,1.75,0,.25-.08.54-.17.87-.25.83-1.21,1.75-1.58,2.04-.46.33-1,.54-1.5.54Z"/>
    </g>
    <g>
      <path class="cls-2" d="M76.57,59.36c0,.43.38.54.7.54,2.16,0,6.38-5.35,7.46-6.71.49-.59.92-.81,1.35-.81.76,0,1.35.76,1.35,1.57,0,.38-.11.76-.38,1.14-2.33,3.14-7.52,8.87-12.22,8.87-1.84,0-3.46-.81-4.11-2.6-1.14,1.19-2.6,2.49-4.33,2.49-2.54,0-5.46-3.46-5.46-7.46s7.14-14.71,12.44-14.71c1.35,0,2.6.81,3.52,2.54,2.38-4.16,9.46-16.66,11.74-16.66,1.51,0,4.22,1.3,4.22,2.6,0,.27-.11.49-.27.7-10.06,13.09-16.01,27.91-16.01,28.5ZM74.46,46.7c-.97,0-3.46,2.97-5.08,5.57-1.78,2.81-2.81,4.98-2.76,6.17,0,.43.16.81.54.81,1.3,0,4-4.33,4.65-5.62.92-1.95,2.06-4,3.14-5.73,0-.54-.11-1.19-.49-1.19Z"/>
      <path class="cls-2" d="M100.96,59.52c-2.7,2.6-5.95,4.16-8.87,4.16-2.27,0-6.6-2-7.46-3.89-.32-.7-.49-1.68-.49-2.76,0-7.52,7.46-14.71,12.28-14.71.27,0,.49.05.76.05,1.46.22,4.81,2.65,4.81,4.71-.27,3.84-4.33,8.38-6.87,8.38-1.08,0-2.97-.87-4.16-1.62-.65,1.57-.81,2.76-.81,3.62,0,1.95.87,2.6,2.87,2.6,2.87,0,5.95-2.27,9.41-6.71.38-.49.81-.7,1.19-.7.76,0,1.41.7,1.41,1.57,0,.27-.05.54-.22.81-.27.43-1.78,2.54-3.84,4.49ZM96.69,46.76c-.6,0-2.43,1.57-4.11,4.11.49.32,1.14.54,1.51.54,1.14,0,2.87-3.24,2.87-4.27,0-.16-.05-.27-.11-.32-.05,0-.11-.05-.16-.05ZM105.72,35.35c-2.16.54-6.76,4.87-7.52,4.87-.54,0-.59-.32-.59-.81,0-1.57.43-2.16,1.57-3.19,1.3-1.14,4.98-4.87,6.54-4.87.65,0,1.84,2.22,1.84,2.92s-1.3.97-1.84,1.08Z"/>
    </g>
    <path class="cls-2" d="M111.45,61.22c-1.08,2.49-2.16,5.03-3.73,8-3.52,6.6-7.08,8.6-9.73,8.6-2.16,0-3.57-1.73-3.57-4.16,0-5.03,3.46-10,13.68-14.33l1.19-2.27c-2.16,2.33-4.38,3.19-5.73,3.19-1.73,0-2.65-2.11-2.65-3.73,0-4.49,8.6-15.36,10.11-15.36,1.14,0,2.43.92,2.43,2,0,.7-.65,1.24-1.62,2.38-2.33,2.65-5.52,7.63-5.52,9.09,0,.38.22.59.54.59,1.24,0,5.41-4.49,8.6-9.3,2.97-4.54,3.46-5.25,4.87-5.25s2.16,1.19,2.16,2.16c0,.81-2.11,2.33-5.52,7.63-1.57,2.49-2.76,4.65-3.73,6.76,6.71-3.24,10.49-8.49,11.25-8.49.54,0,.97,1.19.97,2.06,0,1.68-4.87,6.44-11.79,9.46l-2.22.97ZM98.58,70.9c0,.49.22.92.87.92,1.73,0,4.22-4.11,6.17-7.73-5.57,2.97-7.03,4.92-7.03,6.81Z"/>
    <path class="cls-2" d="M125.98,61.89c-3.63,0-6.01-1.72-6.69-4.84-.4-1.92.39-3.88,1.97-4.88,1.24-.77,2.32-1.12,2.57-1.19.11-.04.27-.09.45-.09.37,0,.69.17.89.47.32.48.18,1.12-.32,1.5-.81.66-1.31,2.44-1.21,3.57.21,2.44,2.65,2.57,3.13,2.57.22,0,.44-.02.64-.05,1.81-.32,2.83-1.73,3.04-3,.22-1.31-.37-2.49-1.58-3.15-2.21-1.24-3.57-2.11-3.57-4.42,0-2.62,2.23-4.66,6.11-5.61.87-.21,1.79-.32,2.68-.32,1.91,0,3.42.49,4.26,1.38.52.55.78,1.25.74,2.01-.15,2.29-2.08,3.56-3.92,3.8h-.08c-.3,0-.69-.13-.89-.51-.13-.26-.21-.68.19-1.23.33-.5.59-1.03.74-1.54.1-.32.07-.58-.07-.77-.26-.35-.89-.56-1.65-.56-.43,0-.88.07-1.29.2-1.69.54-2.48,1.4-2.44,2.63.03.6,1.37,1.38,2.17,1.85.18.11.35.21.51.3,1.95,1.21,2.77,3.09,2.31,5.3-.65,3.1-3.73,6-6.87,6.45-.63.09-1.23.13-1.81.13Z"/>
    <path class="cls-2" d="M141.15,61.89c-3.63,0-6.01-1.72-6.69-4.84-.4-1.92.39-3.88,1.97-4.88,1.24-.77,2.32-1.12,2.57-1.19.11-.04.27-.09.45-.09.37,0,.69.17.89.47.32.48.18,1.12-.32,1.5-.81.66-1.31,2.44-1.21,3.57.21,2.44,2.65,2.57,3.13,2.57.22,0,.44-.02.64-.05,1.81-.32,2.83-1.73,3.04-3,.22-1.31-.37-2.49-1.58-3.15-2.21-1.24-3.57-2.11-3.57-4.42,0-2.62,2.23-4.66,6.11-5.61.87-.21,1.79-.32,2.68-.32,1.91,0,3.42.49,4.26,1.38.52.55.78,1.25.74,2.01-.15,2.29-2.08,3.56-3.92,3.8h-.08c-.3,0-.69-.13-.89-.51-.13-.26-.21-.68.19-1.23.33-.5.59-1.03.74-1.54.1-.32.07-.58-.07-.77-.26-.35-.89-.56-1.65-.56-.43,0-.88.07-1.29.2-1.69.54-2.48,1.4-2.44,2.63.03.6,1.37,1.38,2.17,1.85.18.11.35.21.51.3,1.95,1.21,2.77,3.09,2.31,5.3-.65,3.1-3.73,6-6.87,6.45-.63.09-1.23.13-1.81.13Z"/>
    <path class="cls-2" d="M140.53,80.74c-.34,0-.69-.01-1.04-.04-.82-.06-3.64-.39-5.23-2.31-1.61-1.94-2.13-4.36-1.43-6.64.72-2.32,2.59-4.07,5.13-4.8,4.51-1.29,10.85-2.79,18.86-4.46.86-1.21,1.85-2.62,2.89-4.11-1.63,1.25-3.5,2.38-5.34,2.38-.25,0-.5-.02-.74-.06-.89-.17-1.59-.66-2.05-1.41-.62-1-.74-2.46-.33-3.89v-.04c.69-2.09,2.48-4.62,4.75-7.82l.84-1.19c1.54-2.25,1.72-3,1.72-3.22h0c-.09-.47,0-.92.29-1.25.26-.32.65-.5,1.06-.5.47,0,.92.23,1.26.66,2.12,2.66,1.37,4.16-.03,6.39-.17.27-.47.7-.89,1.29-3.06,4.32-4.14,6.38-4.42,7.35.75-.36,2.11-1.3,3.81-2.88,2.5-2.27,5.58-5.47,7.34-7.62,1.53-1.93,2.44-3.41,2.57-3.72v-.02c.28-.82.92-1.11,1.44-1.11s.97.26,1.26.7c.95,1.37,1.41,2.3,1.07,3.21-.17.49-.51,1.09-.76,1.47-2.13,3.52-5.43,8.81-8.88,14.01,13.32-2.62,26.12-4.76,26.83-4.76h.15l.13.03c.62.13,1.04.65,1.02,1.27-.03,1.08-.94,1.22-1.91,1.36-.67.1-1.68.25-2.51.45-.02,0-.32.06-.86.16-9.33,1.72-17.79,3.38-25.16,4.94-1.66,2.43-3.2,4.62-4.58,6.49-2.66,3.62-8.32,9.68-16.24,9.68h0ZM154.24,66.11c-5.94,1.34-10.57,2.51-13.79,3.49-2.56.78-3.71,3.22-3.48,5.12.11.91.62,2.46,2.86,2.6.13,0,.26.01.39.01,4.18,0,7.58-2.33,11.75-8.05.49-.69,2.05-2.86,2.27-3.18Z"/>
  </g>
</svg>